<mxfile host="app.diagrams.net" modified="2023-02-28T01:18:53.248Z" agent="5.0 (Windows)" etag="UqUDGJ5r0GwD9X-RvBEb" version="20.8.23" type="github">
  <diagram name="Page-1" id="8pjnQd3H3hw6dw11gzk_">
    <mxGraphModel dx="3293" dy="2114" grid="1" gridSize="10" guides="1" tooltips="1" connect="1" arrows="1" fold="1" page="1" pageScale="0.5" pageWidth="850" pageHeight="1100" math="0" shadow="0">
      <root>
        <mxCell id="0" />
        <mxCell id="1" parent="0" />
        <mxCell id="gisW79XmUnSymJOhAwS5-7" value="" style="group;spacing=5;spacingTop=0;" parent="1" vertex="1" connectable="0">
          <mxGeometry x="450" y="440" width="360" height="350" as="geometry" />
        </mxCell>
        <mxCell id="gisW79XmUnSymJOhAwS5-8" value="" style="whiteSpace=wrap;html=1;aspect=fixed;" parent="gisW79XmUnSymJOhAwS5-7" vertex="1">
          <mxGeometry width="340.27777777777777" height="340.27777777777777" as="geometry" />
        </mxCell>
        <mxCell id="gisW79XmUnSymJOhAwS5-9" value="&lt;h1&gt;Consumer&lt;br&gt;&lt;/h1&gt;" style="text;html=1;strokeColor=none;fillColor=none;spacing=5;spacingTop=-20;whiteSpace=wrap;overflow=hidden;rounded=0;" parent="gisW79XmUnSymJOhAwS5-7" vertex="1">
          <mxGeometry width="190" height="38.888888888888886" as="geometry" />
        </mxCell>
        <mxCell id="gisW79XmUnSymJOhAwS5-10" value="&lt;div style=&quot;font-size: 24px;&quot;&gt;&lt;font style=&quot;font-size: 24px;&quot;&gt;If buffer = empty, wait until producer produces&lt;/font&gt;&lt;/div&gt;&lt;div style=&quot;font-size: 24px;&quot;&gt;&lt;font style=&quot;font-size: 24px;&quot;&gt;Consume 1 mill elements total&lt;/font&gt;&lt;/div&gt;&lt;div style=&quot;font-size: 24px;&quot;&gt;&lt;font style=&quot;font-size: 24px;&quot;&gt;&lt;br&gt;&lt;/font&gt;&lt;/div&gt;" style="text;html=1;strokeColor=none;fillColor=none;align=center;verticalAlign=middle;whiteSpace=wrap;rounded=0;spacing=2;" parent="gisW79XmUnSymJOhAwS5-7" vertex="1">
          <mxGeometry y="38.89" width="340" height="301.11" as="geometry" />
        </mxCell>
        <mxCell id="gisW79XmUnSymJOhAwS5-11" value="" style="group;spacing=5;spacingTop=0;" parent="1" vertex="1" connectable="0">
          <mxGeometry x="-230" y="420" width="360" height="360" as="geometry" />
        </mxCell>
        <mxCell id="gisW79XmUnSymJOhAwS5-12" value="" style="whiteSpace=wrap;html=1;aspect=fixed;" parent="gisW79XmUnSymJOhAwS5-11" vertex="1">
          <mxGeometry width="360" height="360" as="geometry" />
        </mxCell>
        <mxCell id="gisW79XmUnSymJOhAwS5-13" value="&lt;h1&gt;Producer&lt;br&gt;&lt;/h1&gt;" style="text;html=1;strokeColor=none;fillColor=none;spacing=5;spacingTop=-20;whiteSpace=wrap;overflow=hidden;rounded=0;" parent="gisW79XmUnSymJOhAwS5-11" vertex="1">
          <mxGeometry width="190" height="40" as="geometry" />
        </mxCell>
        <mxCell id="gisW79XmUnSymJOhAwS5-14" value="&lt;div style=&quot;font-size: 24px;&quot;&gt;&lt;font style=&quot;font-size: 24px;&quot;&gt;Adds data items to buffer (1 mill total)&lt;br&gt;&lt;/font&gt;&lt;/div&gt;&lt;div style=&quot;font-size: 24px;&quot;&gt;&lt;font style=&quot;font-size: 24px;&quot;&gt;if buffer = full, wait for consumer to consume &amp;gt;=1 item&lt;/font&gt;&lt;/div&gt;&lt;div style=&quot;font-size: 24px;&quot;&gt;&lt;font style=&quot;font-size: 24px;&quot;&gt;Produces:&lt;/font&gt;&lt;/div&gt;&lt;div style=&quot;font-size: 24px;&quot;&gt;&lt;font style=&quot;font-size: 24px;&quot;&gt;Random random = new Random();&lt;br role=&quot;presentation&quot;&gt;&lt;span dir=&quot;ltr&quot; role=&quot;presentation&quot; style=&quot;left: 13.33%; top: 56.93%; font-size: calc(var(--scale-factor)*10.08px); font-family: monospace; transform: scaleX(1.0838);&quot;&gt;Double buffer&lt;/span&gt;&lt;span dir=&quot;ltr&quot; role=&quot;presentation&quot; style=&quot;left: 26.08%; top: 56.93%; font-size: calc(var(--scale-factor)*10.08px); font-family: monospace; transform: scaleX(1.08337);&quot;&gt;Element = random.nextDouble() * 100.0;&lt;/span&gt;&lt;/font&gt;&lt;/div&gt;" style="text;html=1;strokeColor=none;fillColor=none;align=center;verticalAlign=middle;whiteSpace=wrap;rounded=0;spacing=2;spacingTop=0;" parent="gisW79XmUnSymJOhAwS5-11" vertex="1">
          <mxGeometry y="40" width="360" height="320" as="geometry" />
        </mxCell>
        <mxCell id="gisW79XmUnSymJOhAwS5-15" value="" style="group;spacing=5;spacingTop=0;" parent="1" vertex="1" connectable="0">
          <mxGeometry x="65" y="-120" width="360" height="360" as="geometry" />
        </mxCell>
        <mxCell id="gisW79XmUnSymJOhAwS5-2" value="" style="whiteSpace=wrap;html=1;aspect=fixed;" parent="gisW79XmUnSymJOhAwS5-15" vertex="1">
          <mxGeometry width="360" height="360" as="geometry" />
        </mxCell>
        <mxCell id="gisW79XmUnSymJOhAwS5-4" value="&lt;h1&gt;Bounded Buffer&lt;br&gt;&lt;/h1&gt;" style="text;html=1;strokeColor=none;fillColor=none;spacing=5;spacingTop=-20;whiteSpace=wrap;overflow=hidden;rounded=0;" parent="gisW79XmUnSymJOhAwS5-15" vertex="1">
          <mxGeometry width="190" height="40" as="geometry" />
        </mxCell>
        <mxCell id="gisW79XmUnSymJOhAwS5-5" value="&lt;div style=&quot;font-size: 24px;&quot;&gt;&lt;font style=&quot;font-size: 24px;&quot;&gt;1000 Elements&lt;/font&gt;&lt;/div&gt;&lt;div style=&quot;font-size: 24px;&quot;&gt;&lt;font style=&quot;font-size: 24px;&quot;&gt;FIFO&lt;/font&gt;&lt;/div&gt;&lt;div style=&quot;font-size: 24px;&quot;&gt;&lt;font style=&quot;font-size: 24px;&quot;&gt;&lt;font style=&quot;font-size: 24px;&quot;&gt;Circular buffer (?)&lt;/font&gt;&lt;br&gt;&lt;/font&gt;&lt;/div&gt;" style="text;html=1;strokeColor=none;fillColor=none;align=center;verticalAlign=middle;whiteSpace=wrap;rounded=0;" parent="gisW79XmUnSymJOhAwS5-15" vertex="1">
          <mxGeometry y="40" width="360" height="320" as="geometry" />
        </mxCell>
        <mxCell id="gisW79XmUnSymJOhAwS5-17" value="" style="endArrow=classic;html=1;rounded=0;entryX=0;entryY=1;entryDx=0;entryDy=0;" parent="1" target="gisW79XmUnSymJOhAwS5-5" edge="1">
          <mxGeometry width="50" height="50" relative="1" as="geometry">
            <mxPoint x="-60" y="420" as="sourcePoint" />
            <mxPoint x="-10" y="370" as="targetPoint" />
          </mxGeometry>
        </mxCell>
        <mxCell id="gisW79XmUnSymJOhAwS5-18" value="" style="endArrow=classic;html=1;rounded=0;entryX=1;entryY=0;entryDx=0;entryDy=0;exitX=1;exitY=1;exitDx=0;exitDy=0;" parent="1" source="gisW79XmUnSymJOhAwS5-5" target="gisW79XmUnSymJOhAwS5-9" edge="1">
          <mxGeometry width="50" height="50" relative="1" as="geometry">
            <mxPoint x="510" y="80" as="sourcePoint" />
            <mxPoint x="590" y="340" as="targetPoint" />
          </mxGeometry>
        </mxCell>
        <mxCell id="gisW79XmUnSymJOhAwS5-20" value="wait()" style="text;html=1;strokeColor=none;fillColor=none;align=center;verticalAlign=middle;whiteSpace=wrap;rounded=0;fontStyle=5;fontSize=24;" parent="1" vertex="1">
          <mxGeometry x="510" y="290" width="60" height="30" as="geometry" />
        </mxCell>
        <mxCell id="gisW79XmUnSymJOhAwS5-21" value="notify()" style="text;html=1;strokeColor=none;fillColor=none;align=center;verticalAlign=middle;whiteSpace=wrap;rounded=0;fontStyle=5;fontSize=24;" parent="1" vertex="1">
          <mxGeometry x="-80" y="290" width="60" height="30" as="geometry" />
        </mxCell>
        <mxCell id="gisW79XmUnSymJOhAwS5-22" value="Only 1 of each" style="ellipse;whiteSpace=wrap;html=1;aspect=fixed;fontSize=24;" parent="1" vertex="1">
          <mxGeometry x="160" y="340" width="240" height="240" as="geometry" />
        </mxCell>
        <mxCell id="gisW79XmUnSymJOhAwS5-23" value="" style="group;fontSize=23;" parent="1" vertex="1" connectable="0">
          <mxGeometry x="90" y="930" width="360" height="360" as="geometry" />
        </mxCell>
        <mxCell id="gisW79XmUnSymJOhAwS5-24" value="" style="whiteSpace=wrap;html=1;aspect=fixed;fontSize=23;" parent="gisW79XmUnSymJOhAwS5-23" vertex="1">
          <mxGeometry width="360" height="360" as="geometry" />
        </mxCell>
        <mxCell id="gisW79XmUnSymJOhAwS5-25" value="&lt;div style=&quot;font-size: 24px;&quot;&gt;&lt;font style=&quot;font-size: 24px;&quot;&gt;&lt;br&gt;&lt;/font&gt;&lt;/div&gt;&lt;div style=&quot;font-size: 24px;&quot;&gt;&lt;font style=&quot;font-size: 24px;&quot;&gt;bufferValueCounter&lt;/font&gt;&lt;/div&gt;" style="text;html=1;strokeColor=none;fillColor=none;spacing=5;spacingTop=-20;whiteSpace=wrap;overflow=hidden;rounded=0;fontSize=23;" parent="gisW79XmUnSymJOhAwS5-23" vertex="1">
          <mxGeometry width="220" height="50" as="geometry" />
        </mxCell>
        <mxCell id="gisW79XmUnSymJOhAwS5-26" value="&lt;div&gt;Total of items added/removed from buffer&lt;/div&gt;&lt;div&gt;Value reported for both first N elements produced and first N elements consumed should be same&lt;br&gt;&lt;/div&gt;" style="text;html=1;strokeColor=none;fillColor=none;align=center;verticalAlign=middle;whiteSpace=wrap;rounded=0;fontSize=23;" parent="gisW79XmUnSymJOhAwS5-23" vertex="1">
          <mxGeometry y="60" width="360" height="300" as="geometry" />
        </mxCell>
        <mxCell id="gisW79XmUnSymJOhAwS5-28" value="" style="endArrow=classic;html=1;rounded=0;fontSize=24;exitX=0.5;exitY=1;exitDx=0;exitDy=0;" parent="1" source="gisW79XmUnSymJOhAwS5-14" target="gisW79XmUnSymJOhAwS5-25" edge="1">
          <mxGeometry width="50" height="50" relative="1" as="geometry">
            <mxPoint x="210" y="830" as="sourcePoint" />
            <mxPoint x="260" y="780" as="targetPoint" />
          </mxGeometry>
        </mxCell>
        <mxCell id="gisW79XmUnSymJOhAwS5-29" value="" style="endArrow=classic;html=1;rounded=0;fontSize=24;exitX=0.5;exitY=1;exitDx=0;exitDy=0;" parent="1" source="gisW79XmUnSymJOhAwS5-10" edge="1">
          <mxGeometry width="50" height="50" relative="1" as="geometry">
            <mxPoint x="630" y="870" as="sourcePoint" />
            <mxPoint x="340" y="930" as="targetPoint" />
          </mxGeometry>
        </mxCell>
      </root>
    </mxGraphModel>
  </diagram>
</mxfile>
